-
 
http://www.Speed. Cd       the fast  and The Hottest Private Tracker on the net 
http://www.Speed. Cd

Please Seed back to make the speed Faster!!
 ............ NFO .............
-
 
http://www.Speed. Cd                                                                                                     
       
     
     
       
       
     
     
                                         
                                         
                EXVID                    
                                         
         
                                         
         Filled the Archives             
                                         
         
                                         
                With:                    
                                         
         
                                         
                                    
     E240                           
                                    
     SP               (C) 2009      
                                         
     
     
     
                                                                                  
                                                                                   
                Breaking.The.Girls.2012.DVDRip.XviD-EXViD                           
                                                                                   
                                                                                  
     
                                                                                               
EXViD aims to iNTERNAL those releases which have been lost in the archives.
EXViD aims to PRE non-internal releases which have poor sources and are likely skipped by others. 
http://www.imdb.com/title/tt1510686/
Subtitles: NL
Date: 2013.04

Director: Jamie Babbit

Genres: Crime |  Thriller

Plot:
Two college students make a pact to kill each other's enemies.

Cast:
Shawn Ashmore 	 ... 	 Eric Nolan 
Madeline Zima 	 ... 	 Alex Layton 
Steve Crest 	 ... 	 Police Officer 
John Stockwell 	 ... 	 David Layton 
Agnes Bruckner 	 ... 	 Sara Ryan 
Melanie Mayron 	 ... 	 Annie 
Sam Anderson 	 ... 	 Professor Nolan 
Tiya Sircar 	 ... 	 Piper Sperling 
Kate Levering 	 ... 	 Nina Layton 
Shanna Collins 	 ... 	 Brooke Potter 
Manish Dayal 	 ... 	 Tim 
Davenia McFadden 	 ... 	 Detective Ross 
Mark Casimir Dyniewicz 	 ... 	 Art Gallery Guest 
Jennifer Ann Massey 	 ... 	 Jaime Ryan 
Billy Mayo 	 ... 	 Jones

Stats:
Format                           : AVI
Format/Info                      : Audio Video Interleave
File size                        : 700 MiB
Duration                         : 1h 23mn
Overall bit rate                 : 1 176 Kbps
Writing application              : VirtualDubMod 1.5.10.2 (build 2540/release)
Writing library                  : VirtualDubMod build 2540/release

Video
ID                               : 0
Format                           : MPEG-4 Visual
Format profile                   : Advanced Simple@L5
Format settings, BVOP            : Yes
Format settings, QPel            : No
Format settings, GMC             : No warppoints
Format settings, Matrix          : Default (H.263)
Muxing mode                      : Packed bitstream
Codec ID                         : XVID
Codec ID/Hint                    : XviD
Duration                         : 1h 23mn
Bit rate                         : 1 035 Kbps
Width                            : 624 pixels
Height                           : 352 pixels
Display aspect ratio             : 16:9
Frame rate                       : 25.000 fps
Color space                      : YUV
Chroma subsampling               : 4:2:0
Bit depth                        : 8 bits
Scan type                        : Progressive
Bits/(Pixel*Frame)               : 0.188
Stream size                      : 616 MiB (88%)
Writing library                  : XviD 64

Audio
ID                               : 1
Format                           : MPEG Audio
Format version                   : Version 1
Format profile                   : Layer 3
Mode                             : Joint stereo
Codec ID                         : 55
Codec ID/Hint                    : MP3
Duration                         : 1h 23mn
Bit rate mode                    : Variable
Bit rate                         : 129 Kbps
Minimum bit rate                 : 128 Kbps
Channel(s)                       : 2 channels
Sampling rate                    : 48.0 KHz
Stream size                      : 76.5 MiB (11%)
Alignment                        : Aligned on interleaves
Interleave, duration             : 24 ms (0.60 video frame)
Interleave, preload duration     : 516 ms
Writing library                  : LAME4.0a
Encoding settings                : -m j -V 4 -q 5 -lowpass 17.5 --vbr-old -b 128




Release notes:
enjoy!

Looking for:
75TB+ Archives
DUTCH/FLEMiSH Archives
                                                                                                    
Greets: CRBS EPiSODE FiCO FLS iLS KLASSiGER LiPSYNC MADE NODLABS RUNNER SPRiNTER      
   

                                                                    ASCII DONE BY XX^NFO 2oo9